<?xml version="1.0" encoding="UTF-8"?>
<svg width="50px" height="37px" viewBox="0 0 50 37" version="1.1" xmlns="http://www.w3.org/2000/svg" xmlns:xlink="http://www.w3.org/1999/xlink">
    <!-- Generator: Sketch 54.1 (76490) - https://sketchapp.com -->
    <title>Icon / Particulares / e94a</title>
    <desc>Created with Sketch.</desc>
    <defs>
        <polygon id="path-1" points="-0.00015 0.4875 40.52485 0.4875 40.52485 36.5 -0.00015 36.5"></polygon>
    </defs>
    <g id="Page-1" stroke="none" stroke-width="1" fill="none" fill-rule="evenodd">
        <g id="3.-Recomendação" transform="translate(-1069.000000, -465.000000)">
            <g id="Icon-/-Particulares-e94a" transform="translate(1069.000000, 465.000000)">
                <g id="Icon-/-Particulares-/-e94a">
                    <polygon id="Fill-1" fill="#000000" points="15.5005 36.5127 17.5005 36.5127 17.5005 26.5122 15.5005 26.5122"></polygon>
                    <polygon id="Fill-2" fill="#000000" points="30 36.5127 32 36.5127 32 26.5122 30 26.5122"></polygon>
                    <g id="Group-8" transform="translate(0.000000, 0.012700)">
                        <path d="M5.00005,13.3392 L5.00005,11.0487 C5.00005,10.1042 5.32205,9.2367 5.85605,8.5462 C6.55805,9.7397 8.43255,11.8147 13.00005,11.9412 L13.00005,13.3392 C13.00005,14.9122 12.41905,16.3597 11.36405,17.4167 L11.16105,17.6462 C10.57805,18.2187 9.84805,18.5207 9.04805,18.5207 C8.23305,18.5207 7.46655,18.2027 6.89305,17.6287 L6.68455,17.4177 C5.59805,16.3297 5.00005,14.8812 5.00005,13.3392 M12.84205,9.9302 C8.84855,9.7522 7.69955,7.8462 7.45505,7.3032 C7.93055,7.0997 8.45255,6.9872 9.00005,6.9872 C10.82305,6.9872 12.36205,8.2332 12.84205,9.9302 M12.59805,19.0377 L12.80355,18.8057 C14.22005,17.3727 15.00005,15.4332 15.00005,13.3392 L15.00005,11.0487 C15.00005,7.7062 12.30855,4.9872 9.00005,4.9872 C5.69155,4.9872 3.00005,7.7062 3.00005,11.0487 L3.00005,13.3392 C3.00005,15.4147 3.80555,17.3652 5.26505,18.8277 L5.47405,19.0387 C5.63855,19.2037 5.81555,19.3507 5.99755,19.4897 C0.07355,24.1922 5e-05,30.1912 5e-05,30.4497 L5e-05,34.4997 L2.00005,34.4997 L2.00005,30.4532 C2.00155,30.2282 2.10355,24.8972 7.60005,20.7747 L8.06605,20.4257 C8.38605,20.4882 8.71455,20.5207 9.04805,20.5207 C10.38155,20.5207 11.64205,19.9942 12.59805,19.0377" id="Fill-3" fill="#000000"></path>
                        <g id="Group-7" transform="translate(9.500000, 0.000000)">
                            <mask id="mask-2" fill="white">
                                <use xlink:href="#path-1"></use>
                            </mask>
                            <g id="Clip-6"></g>
                            <path d="M29.69735,19.44955 C28.87585,19.44955 28.36735,19.27505 27.96285,18.87205 L27.52135,18.40055 C26.65835,17.53555 26.49985,16.60455 26.49985,15.08155 L26.49985,13.29205 C26.49985,12.09055 26.91435,10.73755 28.01785,10.10155 C28.69785,11.60105 30.23285,13.42205 32.99985,13.78105 L32.99985,14.94855 C32.99985,16.37155 32.81635,17.50305 31.93235,18.38905 L31.45785,18.84805 C31.03135,19.27505 30.52085,19.44955 29.69735,19.44955 L29.69735,19.44955 Z M11.70635,14.88205 L11.47085,14.64805 C10.19985,13.37555 9.49985,11.68455 9.49985,9.88755 L9.49985,7.27055 C9.49985,4.63255 11.63085,2.48705 14.24985,2.48705 C16.86935,2.48705 18.99985,4.63255 18.99985,7.27055 L18.99985,9.88755 C18.99985,11.70105 18.30985,13.39155 17.03735,14.66755 L16.83285,14.88405 C16.14585,15.57155 15.23785,15.95055 14.27585,15.95055 C13.30685,15.95055 12.39535,15.57205 11.70635,14.88205 L11.70635,14.88205 Z M37.49985,25.50005 L40.52485,25.61505 L38.27385,23.85405 C38.20435,23.70755 37.99985,23.17105 37.99985,21.94955 L37.99985,11.94955 C37.99985,7.65705 33.64485,4.44955 29.74985,4.44955 C22.82885,4.44955 20.99985,10.33655 20.99985,13.44955 L20.99985,16.27855 C20.81185,16.19005 20.62235,16.10205 20.42435,16.01755 L19.10235,15.35055 C20.32985,13.81555 20.99985,11.91055 20.99985,9.88755 L20.99985,7.27055 C20.99985,3.53005 17.97235,0.48705 14.24985,0.48705 C10.52785,0.48705 7.49985,3.53005 7.49985,7.27055 L7.49985,9.88755 C7.49985,11.93205 8.19885,13.87055 9.48535,15.43205 L8.15385,16.00405 C0.27735,19.34855 0.00785,26.15055 -0.00015,26.46505 L-0.00015,36.50005 L1.99985,36.50005 L1.99935,26.49155 C2.00085,26.43405 2.22935,20.69205 8.93935,17.84355 L11.05635,16.93405 C11.99485,17.59205 13.10685,17.95055 14.27585,17.95055 C15.48735,17.95055 16.63885,17.56055 17.61035,16.83755 L19.55235,17.81705 L19.61235,17.84505 C26.26235,20.66855 26.49385,26.25205 26.49985,26.46505 L26.49985,36.50005 L28.49985,36.50005 L28.49985,26.44605 C28.49485,26.19405 28.32585,20.94855 22.99985,17.39955 L22.99985,13.45205 C23.00135,13.16655 23.11185,6.44955 29.74985,6.44955 C33.27035,6.44955 35.99985,9.40605 35.99985,11.94955 L35.99985,21.94955 C35.99985,22.57155 36.04435,23.08255 36.11285,23.50005 L35.43985,23.50005 C35.11685,23.50005 33.50485,23.42555 33.49985,21.94955 L33.49985,19.63755 C34.81435,18.20105 34.99985,16.46755 34.99985,14.94855 L34.99985,11.84405 L33.99985,11.84405 C30.39135,11.84405 29.63785,8.73355 29.60885,8.60705 L29.40035,7.64155 L28.43235,7.83805 C26.04335,8.32355 24.49985,10.46405 24.49985,13.29205 L24.49985,15.08155 C24.49985,16.66205 24.62435,18.32905 26.08385,19.79055 L26.52535,20.26205 C27.58935,21.32655 28.84535,21.44955 29.69735,21.44955 C30.19935,21.44955 30.84235,21.40105 31.50035,21.15155 L31.50035,21.92605 C31.49685,22.07255 31.49535,23.38805 32.49235,24.40855 C33.00985,24.93905 33.68185,25.27505 34.49335,25.41855 L34.51035,25.45055 C35.96635,28.14005 35.99985,30.39355 35.99985,30.41205 L35.99985,34.50005 L37.99985,34.50005 L37.99985,30.41205 C37.99985,30.31355 37.98085,28.19855 36.76235,25.50005 L37.49985,25.50005 Z" id="Fill-5" fill="#000000" mask="url(#mask-2)"></path>
                        </g>
                    </g>
                </g>
            </g>
        </g>
    </g>
</svg>