<?xml version="1.0" encoding="UTF-8"?>
<svg width="132px" height="33px" viewBox="0 0 132 33" version="1.1" xmlns="http://www.w3.org/2000/svg" xmlns:xlink="http://www.w3.org/1999/xlink">
    <!-- Generator: Sketch 54.1 (76490) - https://sketchapp.com -->
    <title>Fidelidade Brand</title>
    <desc>Created with Sketch.</desc>
    <g id="Page-1" stroke="none" stroke-width="1" fill="none" fill-rule="evenodd">
        <g id="Fidelidade-Brand" fill="#FFFFFF">
            <path d="M86.053808,7.5 C86.053808,11.6375 82.6630187,15 78.494756,15 L72.8242134,15 L76.122207,10.93 L81.6899225,10.93 L83.2599179,10.28 L84.671911,7.5 L80.74943,5.205 L80.3882809,3.8325 L77.7298222,2.685 L76.122207,0 L72.8141815,3.285 L72.8141815,0 L78.7631099,0 C82.6605107,0 86.053808,3.365 86.053808,7.5 Z M119.151619,7.5 C119.151619,11.635 115.753306,15 111.580027,15 L105.914501,15 L105.914501,0 L111.580027,0 C115.753306,0 119.151619,3.365 119.151619,7.5 Z M115.645463,7.3075 C115.645463,4.975 113.734382,3.0775 111.389421,3.0775 L109.026904,3.0775 L109.026904,11.54 L111.389421,11.54 C113.73689,11.5375 115.645463,9.64 115.645463,7.3075 Z M34.2640219,7.5 C34.2640219,11.635 30.8657091,15 26.6899225,15 L21.0243958,15 L21.0243958,0 L26.6899225,0 C30.8657091,0 34.2640219,3.365 34.2640219,7.5 Z M30.7603739,7.3075 C30.7603739,4.975 28.8518012,3.0775 26.504332,3.0775 L24.1393069,3.0775 L24.1393069,11.54 L26.504332,11.54 C28.8518012,11.5375 30.7603739,9.64 30.7603739,7.3075 Z M0,15 L3.2403101,15 L3.2403101,9.1425 L8.7127223,9.1425 L8.7127223,5.8575 L3.2403101,5.8575 L3.2403101,3.2825 L9.3447332,3.2825 L9.3447332,0 L0,0 L0,15 L0,15 Z M47.1149111,3.2825 L47.1149111,0 L37.7701778,0 L37.7701778,15 L47.1149111,15 L47.1149111,11.7175 L41.0104879,11.7175 L41.0104879,9.1425 L46.4854081,9.1425 L46.4854081,5.8575 L41.0104879,5.8575 L41.0104879,3.2825 L47.1149111,3.2825 Z M65.0269038,15 L68.1418149,15 L68.1418149,0 L65.0269038,0 L65.0269038,15 Z M54.6388509,0 L51.3985408,0 L51.3985408,14.825 L51.3985408,15 L60.7432741,15 L60.7432741,11.7175 L54.6388509,11.7175 L54.6388509,0 Z M13.628363,15 L16.7432741,15 L16.7432741,0 L13.628363,0 L13.628363,15 Z M132,3.2825 L132,0 L122.655267,0 L122.655267,15 L132,15 L132,11.7175 L125.895577,11.7175 L125.895577,9.1425 L131.370497,9.1425 L131.370497,5.8575 L125.895577,5.8575 L125.895577,3.2825 L132,3.2825 Z M102.405837,15 L99.140447,15 L97.991792,12.11 L91.634063,12.11 L90.487916,14.995 L87.222526,14.995 L93.183995,0 L93.204058,0 L96.449384,0 L96.446876,0.0075 L102.405837,15 Z M93.061104,8.845 L96.955996,8.845 L95.009804,4.23 L93.061104,8.845 Z" id="Shape" fill-rule="nonzero"></path>
            <g id="Brand" transform="translate(52.000000, 21.000000)" font-family="AzoSans-Regular, Azo Sans" font-size="10" font-weight="normal">
                <text>
                    <tspan x="0.4554687" y="11">Brand</tspan>
                </text>
            </g>
        </g>
    </g>
</svg>