<?xml version="1.0" encoding="UTF-8"?>
<svg width="50px" height="53px" viewBox="0 0 50 53" version="1.1" xmlns="http://www.w3.org/2000/svg" xmlns:xlink="http://www.w3.org/1999/xlink">
    <!-- Generator: Sketch 54.1 (76490) - https://sketchapp.com -->
    <title>Group 2</title>
    <desc>Created with Sketch.</desc>
    <defs>
        <polygon id="path-1" points="0 0.1916 49.9485 0.1916 49.9485 52.5 0 52.5"></polygon>
        <polygon id="path-3" points="2.09610107e-13 52.5 49.9485 52.5 49.9485 0.1915 2.09610107e-13 0.1915"></polygon>
    </defs>
    <g id="Page-1" stroke="none" stroke-width="1" fill="none" fill-rule="evenodd">
        <g id="3.-Recomendação" transform="translate(-567.000000, -377.000000)">
            <g id="Icon-/-Responsabilidade_social-/-e959" transform="translate(567.000000, 377.000000)">
                <g id="Group-2" transform="translate(0.000000, 0.308500)">
                    <g id="Group-3">
                        <mask id="mask-2" fill="white">
                            <use xlink:href="#path-1"></use>
                        </mask>
                        <g id="Clip-2"></g>
                        <path d="M39.4743,39.2871 L39.4743,38.0881 C39.4743,32.6661 35.7608,27.9281 30.1698,26.0901 C31.7398,24.2936 32.6058,22.0216 32.6058,19.6126 L32.6058,16.6346 C32.6058,12.4171 29.1738,8.9851 24.9563,8.9851 C20.7383,8.9851 17.3068,12.4171 17.3068,16.6346 L17.3068,19.6126 C17.3068,22.0866 18.2213,24.4146 19.8733,26.2331 C14.5678,28.1596 10.9743,32.8456 10.9743,38.0881 L10.9743,40.0296 C10.8888,39.9251 10.8043,39.8246 10.7178,39.7176 C1.1628,27.8591 1.8883,11.6686 2.0978,8.8371 C13.6703,8.6266 23.2048,3.3291 25.0078,2.2636 C26.9658,3.4111 36.4753,8.6261 47.8518,8.8371 C48.0548,11.5661 48.7733,27.4526 39.4743,39.2871 M28.3053,25.1776 L28.0358,25.4471 C27.2133,26.2696 26.1193,26.7226 24.9563,26.7226 C24.0263,26.7226 23.1433,26.4286 22.4053,25.8926 L22.3138,25.5281 L22.0418,25.5966 C21.9863,25.5476 21.9298,25.5001 21.8768,25.4471 L21.6083,25.1786 C20.1218,23.6921 19.3028,21.7151 19.3028,19.6126 L19.3028,16.6346 C19.3028,13.5176 21.8388,10.9816 24.9563,10.9816 C28.0733,10.9816 30.6098,13.5176 30.6098,16.6346 L30.6098,19.6126 C30.6098,21.7151 29.7908,23.6921 28.3053,25.1776 M24.9123,50.4376 L24.8263,50.4446 C23.7833,50.2401 19.1078,48.9886 12.9743,42.3371 L12.9743,38.0881 C12.9743,33.3551 16.5238,29.1431 21.6283,27.7716 C22.6198,28.3846 23.7613,28.7186 24.9563,28.7186 C26.2233,28.7186 27.4328,28.3496 28.4638,27.6636 L28.9608,27.8021 C34.0528,29.2246 37.4743,33.3586 37.4743,38.0881 L37.4743,41.6716 C30.2823,49.7226 24.9498,50.4331 24.9123,50.4376 M49.8133,8.2921 L49.7193,6.8431 L48.5593,6.8431 C36.2958,6.8431 26.1353,0.6171 25.7093,0.3526 L25.4823,0.2116 L24.8928,0.1916 L24.3938,0.2961 L24.2433,0.3896 C24.1398,0.4541 13.7378,6.8431 1.3903,6.8431 L0.2293,6.8431 L0.1383,8.2711 C0.0618,9.0536 -1.6182,27.5951 9.1603,40.9726 C17.4583,51.2711 24.0603,52.3726 24.7858,52.4641 L25.0683,52.5001 L25.2838,52.4016 C26.4948,52.1966 32.8703,50.6856 40.7893,40.8571 C51.5573,27.4921 49.8868,9.0381 49.8133,8.2921" id="Fill-1" fill="#000000" mask="url(#mask-2)"></path>
                    </g>
                    <mask id="mask-4" fill="white">
                        <use xlink:href="#path-3"></use>
                    </mask>
                    <g id="Clip-5"></g>
                    <polygon id="Fill-4" fill="#000000" mask="url(#mask-4)" points="30.9745 43.8435 32.9745 43.8435 32.9745 35.8435 30.9745 35.8435"></polygon>
                    <polygon id="Fill-6" fill="#000000" mask="url(#mask-4)" points="17.4745 43.8435 19.4745 43.8435 19.4745 35.8435 17.4745 35.8435"></polygon>
                </g>
            </g>
        </g>
    </g>
</svg>