<?xml version="1.0" encoding="UTF-8"?>
<svg width="54px" height="47px" viewBox="0 0 54 47" version="1.1" xmlns="http://www.w3.org/2000/svg" xmlns:xlink="http://www.w3.org/1999/xlink">
    <!-- Generator: Sketch 54.1 (76490) - https://sketchapp.com -->
    <title>Icon / Auto / e919</title>
    <desc>Created with Sketch.</desc>
    <g id="Page-1" stroke="none" stroke-width="1" fill="none" fill-rule="evenodd">
        <g id="3.-Recomendação" transform="translate(-287.000000, -463.000000)" fill="#2C363E">
            <g id="Icon-/-Auto-/-e919" transform="translate(287.000000, 463.000000)">
                <g id="Group-3">
                    <path d="M51.8841,18.1544 C51.7111,18.3609 51.4201,18.4999 51.1601,18.4999 L47.5861,18.5039 L48.4661,20.0084 C48.4826,20.0374 50.1476,22.9499 50.1476,28.5169 C50.1476,32.8994 48.7676,35.5734 48.1896,36.4999 L39.5141,36.4999 L37.1066,36.4999 L36.9541,35.9519 C36.4311,34.0759 35.3861,31.8394 33.3781,31.8394 L20.6636,31.8394 C18.6551,31.8394 17.6101,34.0769 17.0876,35.9534 L16.9351,36.4999 L14.5141,36.4999 L5.8321,36.4999 C5.2491,35.5829 3.8671,32.9409 3.8671,28.5169 C3.8671,22.9499 5.5316,20.0374 5.5461,20.0124 L6.4481,18.4999 L2.8546,18.4999 C2.6076,18.4999 2.3236,18.3584 2.1476,18.1479 C2.0821,18.0694 1.9766,17.9134 2.0056,17.7519 C2.0646,17.4269 2.4956,16.3594 2.8606,15.5579 L2.8871,15.4944 C3.0011,15.1894 3.2996,14.9999 3.6661,14.9999 L7.5721,14.9999 L11.1161,6.0674 C12.0896,3.6344 14.4521,1.9999 16.9946,1.9999 L37.0201,1.9999 C39.5621,1.9999 41.9246,3.6349 42.8971,6.0644 L46.4426,14.9999 L50.3481,14.9999 C50.5321,14.9999 50.9766,15.0434 51.1461,15.4934 C51.5146,16.3434 51.9486,17.4659 52.0086,17.7989 C52.0341,17.9389 51.9551,18.0694 51.8841,18.1544 L51.8841,18.1544 Z M47.5141,42.9904 C47.5141,43.4564 47.3036,43.9999 46.7101,43.9999 L42.7101,43.9999 C42.1176,43.9999 41.5141,43.4904 41.5141,42.9904 L41.5141,38.4999 L47.5141,38.4999 L47.5141,42.9904 Z M19.0141,36.4899 C19.0141,36.4899 19.7526,33.8394 20.6636,33.8394 L33.3781,33.8394 C34.2891,33.8394 35.0276,36.4889 35.0276,36.4889 L19.0141,36.4899 Z M12.5141,43.4804 C12.5141,43.9854 11.9036,44.4999 11.3046,44.4999 L7.3046,44.4999 C6.5361,44.4999 6.5141,43.5849 6.5141,43.4804 L6.5141,38.4999 L12.5141,38.4999 L12.5141,43.4804 Z M53.9766,17.4424 C53.8451,16.7149 53.1246,15.0294 53.0001,14.7449 C52.5966,13.6684 51.5801,12.9999 50.3481,12.9999 L47.8011,12.9999 L44.7551,5.3244 C43.4806,2.1399 40.3726,-0.0001 37.0201,-0.0001 L16.9946,-0.0001 C13.6421,-0.0001 10.5336,2.1399 9.2581,5.3274 L6.2136,12.9999 L3.6661,12.9999 C2.4766,12.9999 1.4446,13.6884 1.0276,14.7569 C0.8581,15.1304 0.1676,16.6789 0.0381,17.3949 C-0.0914,18.1079 0.1126,18.8309 0.6126,19.4299 C1.1721,20.0999 2.0106,20.4999 2.8546,20.4999 L3.1481,20.4999 C2.5816,22.0314 1.8671,24.7154 1.8671,28.5169 C1.8671,34.5974 4.2596,37.7804 4.5141,38.1024 L4.5141,43.4804 C4.5141,45.2019 5.7136,46.4999 7.3046,46.4999 L11.3046,46.4999 C13.0146,46.4999 14.5141,45.0889 14.5141,43.4804 L14.5141,38.4999 L39.5141,38.4999 L39.5141,42.9904 C39.5141,44.5939 41.0076,45.9999 42.7101,45.9999 L46.7101,45.9999 C48.3086,45.9999 49.5141,44.7064 49.5141,42.9904 L49.5141,38.1014 C49.7626,37.7864 52.1476,34.6034 52.1476,28.5169 C52.1476,24.7154 51.4336,22.0314 50.8661,20.4999 L51.1601,20.4999 C52.0186,20.4999 52.8631,20.1024 53.4191,19.4359 C53.9061,18.8529 54.1036,18.1444 53.9766,17.4424 L53.9766,17.4424 Z" id="Fill-1"></path>
                </g>
                <path d="M18.014,27.0001 C18.014,27.5516 17.5655,28.0001 17.014,28.0001 L10.014,28.0001 C9.4625,28.0001 9.014,27.5516 9.014,27.0001 L9.014,26.0001 C9.014,25.4486 9.4625,25.0001 10.014,25.0001 L17.014,25.0001 C17.5655,25.0001 18.014,25.4486 18.014,26.0001 L18.014,27.0001 Z M17.014,23.0001 L10.014,23.0001 C8.3595,23.0001 7.014,24.3456 7.014,26.0001 L7.014,27.0001 C7.014,28.6546 8.3595,30.0001 10.014,30.0001 L17.014,30.0001 C18.6685,30.0001 20.014,28.6546 20.014,27.0001 L20.014,26.0001 C20.014,24.3456 18.6685,23.0001 17.014,23.0001 L17.014,23.0001 Z" id="Fill-4"></path>
                <path d="M45.014,27.0001 C45.014,27.5516 44.5655,28.0001 44.014,28.0001 L37.014,28.0001 C36.4625,28.0001 36.014,27.5516 36.014,27.0001 L36.014,26.0001 C36.014,25.4486 36.4625,25.0001 37.014,25.0001 L44.014,25.0001 C44.5655,25.0001 45.014,25.4486 45.014,26.0001 L45.014,27.0001 Z M44.014,23.0001 L37.014,23.0001 C35.3595,23.0001 34.014,24.3456 34.014,26.0001 L34.014,27.0001 C34.014,28.6546 35.3595,30.0001 37.014,30.0001 L44.014,30.0001 C45.6685,30.0001 47.014,28.6546 47.014,27.0001 L47.014,26.0001 C47.014,24.3456 45.6685,23.0001 44.014,23.0001 L44.014,23.0001 Z" id="Fill-6"></path>
                <path d="M15.04625,8.14855 C15.44725,7.14705 16.41875,6.50005 17.52175,6.50005 L36.50225,6.50005 C37.60525,6.50005 38.57675,7.14705 38.97025,8.13055 L41.94575,16.00005 L12.08125,16.00005 L15.04625,8.14855 Z M40.83425,7.40555 C40.12825,5.64055 38.42775,4.50005 36.50225,4.50005 L17.52175,4.50005 C15.59675,4.50005 13.89625,5.64005 13.18225,7.42355 L9.18775,18.00005 L44.84025,18.00005 L40.83425,7.40555 Z" id="Fill-8"></path>
            </g>
        </g>
    </g>
</svg>