<?xml version="1.0" encoding="UTF-8"?>
<svg width="50px" height="50px" viewBox="0 0 50 50" version="1.1" xmlns="http://www.w3.org/2000/svg" xmlns:xlink="http://www.w3.org/1999/xlink">
    <!-- Generator: Sketch 54.1 (76490) - https://sketchapp.com -->
    <title>Icon / servicos_reparacao / e908</title>
    <desc>Created with Sketch.</desc>
    <g id="Page-1" stroke="none" stroke-width="1" fill="none" fill-rule="evenodd">
        <g id="3.-Recomendação" transform="translate(-846.000000, -459.000000)" fill="#000000">
            <g id="Icon-/-servicos_reparacao-e908" transform="translate(846.000000, 459.000000)">
                <g id="Icon-/-servicos_reparacao-/-e908">
                    <path d="M38.1971154,30.9615385 L37.7163462,30.9615385 L31.3076923,24.5865385 L30.1346154,25.7548077 L37.0192308,32.6201923 L38.1923077,32.6201923 C45.0144231,32.6201923 48.0913462,35.3701923 48.1538462,41.5336538 L47.9278846,41.9855769 L43.1730769,37.2451923 L37.0192308,43.3798077 L41.7740385,48.1201923 L41.3221154,48.3461538 C35.1442308,48.2788462 32.3846154,45.1923077 32.3846154,38.4134615 L32.3846154,37.2403846 L27.9903846,32.8605769 L26.8173077,34.0288462 L30.7259615,37.9230769 L30.7259615,38.4038462 C30.7259615,46.2019231 34.2548077,49.9903846 41.5192308,49.9903846 L41.7163462,49.9903846 L44.6009615,48.5480769 L39.3894231,43.3557692 L43.1971154,39.5625 L48.4086538,44.7548077 L49.8509615,41.8990385 L49.8509615,41.7019231 C49.8509615,34.4615385 46.0480769,30.9423077 38.2259615,30.9423077 L38.1971154,30.9615385 Z" id="Path" fill-rule="nonzero"></path>
                    <path d="M11.625,19.375 L12.1057692,19.375 L16.0144231,23.2692308 L17.1923077,22.1153846 L12.7980769,17.7355769 L11.625,17.7355769 C4.80288462,17.7355769 1.72596154,14.9855769 1.66346154,8.82211538 L1.88942308,8.37019231 L6.64423077,13.1105769 L12.7980769,6.97596154 L8.04326923,2.23557692 L8.49519231,2.00961538 C14.6778846,2.07211538 17.4326923,5.14423077 17.4326923,11.9423077 L17.4326923,13.1105769 L24.3221154,19.9615385 L25.4807692,18.7884615 L19.0961538,12.4134615 L19.0961538,11.9326923 C19.0961538,4.13461538 15.5673077,0.346153846 8.30288462,0.346153846 L8.10576923,0.346153846 L5.22115385,1.78846154 L10.4326923,6.98076923 L6.625,10.7788462 L1.44230769,5.5625 L0,8.41826923 L0,8.61538462 C0,15.8653846 3.80288462,19.375 11.625,19.375 L11.625,19.375 Z" id="Path" fill-rule="nonzero"></path>
                    <path d="M25.6682692,30.4855769 L28.5528846,27.6009615 L27.3076923,26.3557692 L43.5192308,10.1442308 L46.1778846,10.1442308 L50,2.50480769 L47.4951923,-5.68434189e-14 L39.8557692,3.81730769 L39.8557692,6.47596154 L23.6634615,22.6682692 L22.4182692,21.4230769 L19.5336538,24.3076923 L18.2692308,23.0769231 L5.68434189e-14,41.3461538 L5.68434189e-14,43.6923077 L6.29807692,50 L8.65384615,50 L26.9230769,31.7307692 L25.6682692,30.4855769 Z M41.5336538,7.16346154 L41.5336538,4.84615385 L47.1634615,2.01923077 L47.9759615,2.83173077 L45.1538462,8.48076923 L42.8317308,8.48076923 L26.1538462,25.1634615 L24.8365385,23.8461538 L41.5336538,7.16346154 Z M22.4182692,23.7740385 L26.2259615,27.5817308 L24.4951923,29.3269231 L20.6730769,25.5048077 L22.4182692,23.7740385 Z M7.95673077,48.3413462 L6.99519231,48.3413462 L1.65865385,43.0144231 L1.65865385,42.0528846 L18.2692308,25.4326923 L24.5673077,31.7307692 L7.95673077,48.3413462 Z" id="Shape" fill-rule="nonzero"></path>
                    <path d="M4.39423077,41.9663462 C4.24513221,42.1160457 4.15300481,42.322476 4.15300481,42.5504808 C4.15300481,43.0076322 4.52361779,43.3782452 4.98076923,43.3782452 C5.20997596,43.3782452 5.41736779,43.2850962 5.56730769,43.1346154 L5.56730769,43.1346154 L18.8557692,29.8942308 C19.0048678,29.7445313 19.0969952,29.538101 19.0969952,29.3100962 C19.0969952,28.8529447 18.7263822,28.4823317 18.2692308,28.4823317 C18.040024,28.4823317 17.8326322,28.5754808 17.6826923,28.7259615 L17.6826923,28.7259615 L4.39423077,41.9663462 Z" id="Path" fill-rule="nonzero"></path>
                    <path d="M6.88461538,45.6201923 C7.03497596,45.7697716 7.2422476,45.8621995 7.47115385,45.8621995 C7.7000601,45.8621995 7.90733173,45.7697115 8.0577524,45.6201322 L8.05769231,45.6201923 L21.3461538,32.375 C21.4581731,32.2351563 21.5259014,32.0555889 21.5259014,31.8602163 C21.5259014,31.4035457 21.155649,31.0332933 20.6989784,31.0332933 C20.5072115,31.0332933 20.3307091,31.0985577 20.1904447,31.2080529 L20.1922476,31.2066707 L6.88455529,44.4470553 C6.73527644,44.5966346 6.64296875,44.803125 6.64296875,45.0311899 C6.64296875,45.2592548 6.73527644,45.4657452 6.88461538,45.6153245 L6.88461538,45.6153245 L6.88461538,45.6201923 Z" id="Path" fill-rule="nonzero"></path>
                </g>
            </g>
        </g>
    </g>
</svg>